<svg version="1.1" xmlns="http://www.w3.org/2000/svg" id="Layer_1" class="workspace_folders" x="0" y="0" viewBox="0 0 668 426" xml:space="preserve"><style>.workspace_folders .st1{fill:#2e6693}.workspace_folders .st3{fill:#e5c6a9}.workspace_folders .st6{fill:#acd7f0}.workspace_folders .st8{fill:#fff}.workspace_folders .st12{fill:#2b6592}.workspace_folders .st15{fill:#aed7b7}.workspace_folders .st16{fill:#2b6693}</style><path class="st0" d="M46 419c-4-19.7-22.4-121.5 42-219.3C101.3 179.6 158.3 98.5 266 77c110.3-22 220 29.2 278 108.6 47 64.2 52.9 137 54 156.9 1.7 32-2.1 58.8-6 77.4-182-.2-364-.6-546-.9z" fill="#e3f6ff"/><path class="st1" d="M30 425H3c-1.6 0-3-1.4-3-3s1.3-3 3-3h27c1.6 0 3 1.4 3 3s-1.3 3-3 3zM592 425H39c-1.6 0-3-1.4-3-3 0-1.7 1.3-3 3-3h553c1.7 0 3 1.3 3 3 0 1.6-1.3 3-3 3zM637 426h-27c-1.7 0-3-1.4-3-3s1.3-3 3-3h27c1.7 0 3 1.4 3 3s-1.3 3-3 3z"/><path class="st2" d="M357.8 176.8h-.2c-.1 0-1-.2-1.4-1-.5-.9-.2-1.8-.2-1.9l35.3-98.5c.5-.8 1-1.3 1.6-1.6.5-.2 1.6-.3 2.7-.3h.1l82.2 29.5c.4.2 1.6 1 2 2.5.3 1.4-.2 2.5-.4 2.8l-.1.2-34.4 95.4v.1c-.1.4-.5 1.3-1.3 1.9-.8.7-1.8.8-2.3.8l-83.6-29.9z" fill="#e3d9fb"/><path class="st1" d="M395.1 76.5L435.6 91l40.9 14.7c.1.1.3.3.4.5.1.3-.1.6-.1.6l-.3.5-.2.5-17 47.5-17 47.5-.1.2v.2c0 .1-.1.3-.3.4-.1 0-.1.1-.2.1l-82.6-29.6L394 76.8c0-.1.1-.1.1-.1.1-.1.5-.1 1-.2m.4-6c-.9 0-2.5.1-3.8.5-.9.4-2.1 1.2-3.2 3.1-11.8 32.9-23.6 65.9-35.4 98.8-.1.3-.8 2.4.5 4.4 1.2 1.8 3.1 2.2 3.4 2.3 27.9 10 55.9 20 83.8 30h.4c.9 0 2.7-.2 4.3-1.5 1.6-1.2 2.1-2.8 2.3-3.4 11.4-31.7 22.7-63.4 34.1-95.1.3-.4 1.4-2.5.7-5-.7-3-3.3-4.3-3.7-4.5l-82.8-29.7c0 .1-.2.1-.6.1z"/><circle class="st3" cx="34" cy="303" r="12"/><circle class="st4" cx="173" cy="58" r="15" fill="#cfc6e5"/><circle class="st5" cx="62" cy="169" r="14" fill="#ffa7a4"/><circle class="st6" cx="453" cy="15" r="15"/><circle class="st7" cx="586" cy="359" r="12" fill="#cff3be"/><path class="st3" d="M464.4 398c-8.6 0-17.7-7.2-22.3-14.4-5.6-8.6-6.3-20-4.2-26.4.9-2.7 2.3-4.4 4.1-5.1.5-.2 1-.3 1.5-.3.4 0 .8.1 1.1.1.3.1.5.1 1 .1h.4c1.5-.1 2.4-.5 3.5-1 1.2-.5 2.6-1.2 4.6-1.2 1.3 0 3.3.3 6.7 2.5 5.7 3.8 9.2 8.6 12.1 13.2 1.1 1.8 2.3 3.7 3.6 6.6 2.1 4.8 4 9.4 2.6 14.5-1.2 4.4-4.8 8.4-9.1 10.2-1.9.9-3.7 1.2-5.6 1.2z"/><path class="st1" d="M454 353c.8 0 2.2.2 5 2 5.4 3.6 8.6 8.2 11.2 12.3 1.1 1.8 2.2 3.6 3.3 6.2 2 4.6 3.6 8.4 2.5 12.5-1 3.6-4 6.8-7.3 8.2-1.4.6-2.8.8-4.3.8-7.4 0-15.6-6.6-19.8-13-6.9-10.8-5.4-25.6-1.6-27 .2-.1.3-.1.5-.1.4 0 .9.2 2.1.2h.6c3.8-.2 5-2.1 7.8-2.1m0-6c-2.6 0-4.5.8-5.8 1.4-1 .4-1.5.7-2.4.7H445.2c-.3-.1-.9-.2-1.6-.2-.9 0-1.8.2-2.6.5-1.9.7-4.4 2.5-5.9 7-2.4 7.2-1.6 19.4 4.5 28.9 4.9 7.6 14.7 15.8 24.8 15.8 2.3 0 4.5-.4 6.6-1.3 5.2-2.1 9.4-6.9 10.8-12.2 1.6-6.1-.6-11.3-2.8-16.4-1.3-3.1-2.7-5.3-3.8-7-2.9-4.7-6.7-10-13-14.1-3-2.2-5.6-3.1-8.2-3.1z"/><path class="st8" d="M443.5 353c-9.6 0-17.5-7.9-17.5-17.5s7.9-17.5 17.5-17.5 17.5 7.9 17.5 17.5-7.9 17.5-17.5 17.5z"/><path class="st1" d="M443.5 321c8 0 14.5 6.5 14.5 14.5s-6.5 14.5-14.5 14.5-14.5-6.5-14.5-14.5 6.5-14.5 14.5-14.5m0-6c-11.3 0-20.5 9.2-20.5 20.5s9.2 20.5 20.5 20.5 20.5-9.2 20.5-20.5-9.2-20.5-20.5-20.5zM452.9 393.9c-2.3 2.9-4.6 5.9-6.9 8.8-1.5 1.9-2.8 3.5-3 6-.3 5.8 7.4 11.5 10.8 15.4 2.6 2.9 6.8-1.4 4.2-4.2-2.6-3-7.7-6.9-7.8-10.9-.1-3.8 4.5-7.9 6.8-10.9 2.5-3-1.7-7.3-4.1-4.2zM469.9 398.1c6.3 7.7 12.7 15.3 19 23 2.5 3 6.7-1.3 4.2-4.2-6.3-7.7-12.7-15.3-19-23-2.4-3-6.7 1.3-4.2 4.2z"/><path class="st8" d="M258.2 358c-18.8 0-34.2-15.5-34.2-34.5v-1c0-15.4 10.5-29.1 25-33.2-.8-2.7-1.3-5.4-1.3-8.3 0-14.9 12-27 26.7-27 5.3 0 10.5 1.6 14.8 4.5 9.1-14 25.7-22.5 44-22.5 12.4 0 24.7 5.2 34.5 14.5 9 8.6 15 19.7 16.4 30.6.3 2.3.4 4.6.3 6.9 18 .9 32.4 16 32.4 34.5v1c0 19-15.3 34.5-34.2 34.5H258.2z"/><path class="st1" d="M333.4 239c25.2 0 45.4 22.4 48 42.5.5 3.8.3 7.1 0 9.5h1.5c17.1 0 31.2 14.2 31.2 31.5v1c0 17.3-14 31.5-31.2 31.5H258.2c-17.1 0-31.2-14.2-31.2-31.5v-1c0-15.6 11.3-28.6 26.1-31.1-1.5-3.2-2.4-6.7-2.4-10.4 0-13.3 10.6-24 23.7-24 6 0 11.5 2.3 15.7 6 7.8-14.2 24.3-24 43.3-24m0-6c-18.3 0-35 8.1-44.9 21.5-4.3-2.3-9.1-3.5-14-3.5-16.4 0-29.7 13.5-29.7 30 0 2.1.2 4.2.7 6.3-5.9 2.2-11.3 5.9-15.5 10.9-5.8 6.8-8.9 15.4-8.9 24.3v1c0 20.7 16.7 37.5 37.2 37.5H383c20.5 0 37.2-16.8 37.2-37.5v-1c0-19-14.1-34.8-32.4-37.2 0-1.5-.1-3.1-.3-4.6-1.5-11.5-7.8-23.3-17.3-32.3-10.6-9.9-23.6-15.4-36.8-15.4z"/><path class="st1" d="M321 336c-1.6 0-3-1.5-3-3.3v-49.4c0-1.8 1.3-3.3 3-3.3 1.6 0 3 1.5 3 3.3v49.4c0 1.8-1.4 3.3-3 3.3z"/><path class="st1" d="M319 285.2l21.5 21.7c1.2 1.2 3 1.2 4.2 0 1.2-1.2 1.2-3.1 0-4.2L323.2 281c-1.2-1.2-3-1.2-4.2 0-1.2 1.1-1.2 3 0 4.2z"/><path class="st1" d="M322.9 285.2l-21.5 21.7c-1.2 1.2-3 1.2-4.2 0-1.2-1.2-1.2-3.1 0-4.2l21.5-21.7c1.2-1.2 3-1.2 4.2 0 1.1 1.1 1.1 3 0 4.2zM435.8 360.2c-3.4-2-6.7-4.1-9.9-6.2-2.5-1.7-5-3.4-7.4-5.2-1.4-1.1-4.1-2.7-4.8-4.4-1.4-3.5-7.2-2-5.8 1.6 2.1 5.1 8.1 8.6 12.5 11.6 4 2.8 8.2 5.4 12.4 7.9 3.3 1.9 6.3-3.3 3-5.3zM437.8 371.1c-13.2-2.8-24.7-10.4-32.2-21.6-2.1-3.2-7.3-.2-5.2 3 8.4 12.5 21 21.2 35.8 24.4 3.8.8 5.4-5 1.6-5.8z"/><path class="st9" d="M204.3 208.8c-.6 0-1.5-.2-2.3-.8-.8-.7-1.2-1.5-1.3-1.9l-.1-.2-34.2-95.3-.1-.2c-.2-.3-.8-1.5-.4-2.8.4-1.5 1.6-2.3 2-2.5l82.2-29.5h.1c1.1 0 2.1.1 2.7.3.6.2 1.1.7 1.6 1.6l35.3 98.6s.3 1-.2 1.8-1.3.9-1.4 1h-.2l-83.7 29.9z" fill="#dafcca"/><path class="st1" d="M250.6 78.5c.5 0 .9.1 1.1.1l.1.1 17.5 48.8 17.4 48.5-82.7 29.7c-.1 0-.1-.1-.2-.1-.2-.1-.3-.4-.3-.4v-.2l-.1-.2-17-47.5-17-47.5-.2-.5-.3-.5s-.2-.3-.1-.6c0-.2.2-.4.4-.5l.5-.2 80.9-29m-.4-6h-.7l-82.8 29.7c-.4.2-2.9 1.5-3.7 4.5-.6 2.6.5 4.6.7 5 11.4 31.7 22.7 63.4 34.1 95.1.2.6.7 2.2 2.3 3.4 1.6 1.3 3.5 1.5 4.3 1.5h.4c27.9-10 55.9-20 83.8-30 .3-.1 2.2-.4 3.4-2.3 1.3-2 .6-4.2.5-4.4-11.8-32.9-23.6-65.9-35.4-98.8-1.1-1.9-2.3-2.7-3.2-3.1-1.1-.5-2.8-.6-3.7-.6z"/><path class="st10" d="M278.5 171c-1.9 0-3.5-1.6-3.5-3.5v-103c0-1.9 1.6-3.5 3.5-3.5h87c1.9 0 3.5 1.6 3.5 3.5v103c0 1.9-1.6 3.5-3.5 3.5h-87z" fill="#fccdce"/><path class="st1" d="M365.5 64c.3 0 .5.2.5.5v103c0 .3-.2.5-.5.5h-87c-.3 0-.5-.2-.5-.5v-103c0-.3.2-.5.5-.5h87m0-6h-87c-3.6 0-6.5 2.9-6.5 6.5v103c0 3.6 2.9 6.5 6.5 6.5h87c3.6 0 6.5-2.9 6.5-6.5v-103c0-3.6-2.9-6.5-6.5-6.5z"/><path class="st8" d="M295.9 142.5c-.7 0-1.4-.6-1.4-1.4V88.9c0-.7.6-1.4 1.4-1.4h52.3c.7 0 1.4.6 1.4 1.4v52.3c0 .7-.6 1.4-1.4 1.4h-52.3z"/><path class="st1" d="M347 90v50h-50V90h50m1.1-5h-52.3c-2.1 0-3.9 1.7-3.9 3.9v52.3c0 2.1 1.7 3.9 3.9 3.9h52.3c2.1 0 3.9-1.7 3.9-3.9V88.9c0-2.2-1.7-3.9-3.9-3.9z"/><path class="st8" d="M435 173.7c-.1 0-.3 0-.4-.1l-49.3-17.3c-.5-.2-.7-.5-.8-.7-.1-.2-.2-.6-.1-1l17.3-49.3c.2-.5.7-.9 1.3-.9.1 0 .3 0 .4.1l49.3 17.3c.5.2.7.5.8.7.1.2.2.6.1 1l-17.3 49.3c-.2.5-.7.9-1.3.9z"/><path class="st1" d="M403.7 107.1l47.2 16.6-16.6 47.2-47.2-16.6 16.6-47.2m-.7-5.3c-1.6 0-3.1 1-3.6 2.6L382 153.7c-.7 2 .4 4.2 2.4 4.9l49.3 17.3c.4.1.8.2 1.3.2 1.6 0 3.1-1 3.6-2.6l17.3-49.3c.7-2-.4-4.2-2.4-4.9L404.3 102c-.5-.1-.9-.2-1.3-.2z"/><path class="st8" d="M210.7 175.7c-.6 0-1.1-.4-1.3-.9l-17.3-49.3c-.2-.5 0-.8.1-1 .1-.2.3-.5.8-.7l49.3-17.3c.1 0 .3-.1.4-.1.6 0 1.1.4 1.3.9l17.3 49.3c.2.5 0 .8-.1 1-.1.2-.3.5-.8.7l-49.3 17.3c-.1.1-.3.1-.4.1z"/><path class="st1" d="M242 109.1l16.6 47.2-47.2 16.6-16.6-47.2 47.2-16.6m.7-5.3c-.4 0-.8.1-1.3.2l-49.3 17.3c-2 .7-3.1 2.9-2.4 4.9l17.3 49.3c.6 1.6 2.1 2.6 3.6 2.6.4 0 .8-.1 1.3-.2l49.3-17.3c2-.7 3.1-2.9 2.4-4.9l-17.3-49.3c-.5-1.6-2-2.6-3.6-2.6z"/><circle class="st1" cx="418.5" cy="138.5" r="17.5"/><path class="st11" d="M311 134c3.1-4.8 6.4-11.2 9-19 1.4-4.3 2.4-8.4 3-12 .3-1.5-.1-5.1-2-6-.2-.1-1.1-.5-2 0-1 .6-1 1.9-1 2v2c.1 1.4.3 2.9 1 5 .3 1.1 1.3 4 3 7 3.5 6 8.9 9.7 11 11 .3.3 1.5 1.1 3 1 2-.2 3-1.9 3-2v-1-1c-.1-.3-.5-.7-2-1-4.1-.5-13.5-1.2-23 4-3.4 1.9-6 4-8 6-.9 1.3-.9 3 0 4 1.1 1.3 3.5 1.5 5 0z" fill="none" stroke="#2e6693" stroke-width="4" stroke-miterlimit="10"/><path class="st12" d="M216 167c1.7-8.3 3.3-16.7 5-25 6 4.3 12 8.7 18 13 .7-3.7 1.3-7.3 2-11 4 3.3 8 6.7 12 10-12.3 4.3-24.7 8.7-37 13z"/><circle class="st12" cx="232.5" cy="132.5" r="5.5"/><path class="st8" d="M418.5 128.6l-8.8 15.8 18.4-1zM491.6 286.5s4.9-21.6 28.5-13.8c0 0 2.9-30.5 31.4-26.5 0 0 16.7 2 15.7 31.4 0 0 15.7-2.9 13.8 9.8h-89.4v-.9z"/><ellipse class="st13" cx="585.4" cy="261" rx="30.9" ry="30.5" fill="#fde577"/><path class="st14" d="M578 291.5s4.9-21.6 28.5-13.8c0 0 2.9-30.5 31.4-26.5 0 0 16.7 2 15.7 31.4 0 0 15.7-2.9 13.8 9.8H578v-.9z" fill="#effaff"/><path class="st15" d="M129.6 363c2.2-4.8 8-14.5 18.9-17.9-2.6 5.7-8.9 16.6-18.9 17.9z"/><path class="st16" d="M144.1 349.2c-2.4 4-5.9 8.4-10.5 10.5 2.2-3.5 5.6-7.7 10.5-10.5m7.6-6.9c-18.8 3-25.2 22.8-25.2 22.8h1.1c16.6 0 24.1-22.8 24.1-22.8z"/><g><path class="st15" d="M114.2 368.1c-1.1-1.3-2.5-3.1-3.9-5.6-2.4-4.3-5.1-11.1-5.2-20.7 4.6 4 12.6 12.9 9.1 26.3z"/><path class="st16" d="M107.5 347.1c.5.6 1 1.2 1.5 1.9 3.1 4.4 4.4 9.2 4.1 14.2-2.4-3.5-4.8-8.8-5.6-16.1m-4.3-9.1c-1.3 23.4 11.9 33.9 11.9 33.9 8.2-21.8-11.9-33.9-11.9-33.9z"/></g><g><path class="st15" d="M118.1 386.7c-5.7-3.8-20.4-14.8-21.5-29.8 2.9 1.3 7.7 3.7 12.1 7.3 8 6.6 11.2 14.1 9.4 22.5z"/><path class="st16" d="M99.2 360.3c2.5 1.3 5.5 3.1 8.4 5.5 6.3 5.2 9.3 11 9 17.4-5.8-4.3-15-12.4-17.4-22.9m-4.6-6.4c-1 21.5 24.7 35.9 24.7 35.9 7.9-24.7-24.7-35.9-24.7-35.9z"/></g><g><path class="st15" d="M125.7 400.8zm-1.8-2.4c-2.4-3.4-6.5-10.3-8.5-19.8-3.6-17.4 1.6-34.9 15.3-52.3 3.3 9 10.9 37.1-6.8 72.1z"/><path class="st16" d="M130 330.5c3.3 10.8 7.3 34.6-6.3 63.8-2.2-3.6-4.8-9.1-6.2-15.9-3.4-15.8.8-31.9 12.5-47.9m1.3-8c-38 45.2-7 79.6-7 79.6 24.3-45.2 7-79.6 7-79.6z"/></g><g><path class="st15" d="M125.1 394.9c-3-3.6-4.2-7.3-3.6-11.4 1.7-11.4 16.9-22 23.5-26.1-1 20.8-15.4 33.9-19.9 37.5z"/><path class="st16" d="M142.6 361.4c-2.2 15.8-12.2 26.3-17.2 30.7-1.7-2.6-2.4-5.3-1.9-8.2 1.3-8.5 11.4-17.3 19.1-22.5m4.4-7.5s-42.5 23-22.2 43.7c0 0 23-15.4 22.2-43.7z"/></g><g><path class="st15" d="M126 399.5c0-5.2 2.3-18.1 25.6-24.5-2.4 6.1-9.1 19.1-25.6 24.5z"/><path class="st16" d="M148 378.2c-3 5.8-8.8 13.8-19.6 18.3.9-5.1 4.9-13.1 19.6-18.3m6.6-6.1c-35 8-30.3 30-30.3 30 24.8-6.7 30.3-30 30.3-30z"/></g><g><path class="st15" d="M119.6 395.3c-2-.5-5.2-1.4-8.5-3.3-6.1-3.5-9.7-8.7-10.8-15.4 2.3.6 5.8 1.7 9.2 3.6 6.6 3.8 10 8.8 10.1 15.1z"/><path class="st16" d="M103.2 379.5c5.3 1.8 12.5 5.6 14.1 13-1.5-.5-3.3-1.2-5-2.2-4.6-2.6-7.7-6.2-9.1-10.8m-5.1-5.4c1.2 21.2 23.4 23.5 23.4 23.5 1.9-19.7-23.4-23.5-23.4-23.5z"/></g><g><path class="st17" d="M120.3 419.5c-6.3 0-11.4-5.1-11.4-11.4v-12.5h31.8v12.5c0 6.3-5.1 11.4-11.4 11.4h-9z" fill="#f5c6c4"/><path class="st16" d="M138.7 397.7v10.5c0 5.2-4.2 9.4-9.4 9.4h-9.1c-5.2 0-9.4-4.2-9.4-9.4v-10.5h27.9m4-4h-35.8v14.5c0 7.4 6 13.4 13.4 13.4h9.1c7.4 0 13.4-6 13.4-13.4v-14.5h-.1z"/></g><circle class="st6" cx="453" cy="15" r="15"/><circle class="st18" cx="529" cy="182" r="9" fill="#ffc794"/></svg>